# Blender v3.2.2 OBJ File: 'CementGrow_build.blend'
# www.blender.org
mtllib CementGrow_06-UV.mtl
o obj_0
v -0.524300 0.137800 0.170400
v -0.551300 0.137800 -0.000000
v -0.551300 -0.137800 0.000000
v -0.524300 -0.137800 0.170400
v -0.524300 0.137800 -0.170400
v -0.524300 -0.137800 -0.170400
v -0.446000 0.137800 -0.324000
v -0.446000 -0.137800 -0.324000
v -0.324000 0.137800 -0.446000
v -0.324000 -0.137800 -0.446000
v -0.170400 -0.137800 -0.524300
v -0.360500 0.137800 -0.117100
v -0.360500 -0.137800 -0.117100
v -0.306600 -0.137800 -0.222800
v -0.306600 0.137800 -0.222800
v -0.379000 0.137800 -0.000000
v -0.379000 -0.137800 0.000000
v -0.360500 0.137800 0.117100
v -0.360500 -0.137800 0.117100
v -0.306600 0.137800 0.222800
v -0.306600 -0.137800 0.222800
v 0.170400 0.137800 0.524300
v 0.117100 0.137800 0.360500
v -0.000000 0.137800 0.551300
v -0.000000 0.137800 -0.551300
v 0.117100 0.137800 -0.360500
v 0.170400 0.137800 -0.524300
v -0.000000 0.137800 0.379000
v -0.117100 0.137800 0.360500
v 0.324000 0.137800 0.446000
v 0.222800 0.137800 0.306600
v 0.360500 0.137800 -0.117100
v 0.446000 0.137800 -0.324000
v 0.306600 0.137800 -0.222800
v 0.324000 0.137800 -0.446000
v 0.222800 0.137800 -0.306600
v 0.306600 0.137800 0.222800
v -0.170400 0.137800 0.524300
v 0.446000 0.137800 0.324000
v 0.524300 0.137800 0.170400
v 0.551300 0.137800 -0.000000
v 0.360500 0.137800 0.117100
v 0.379000 0.137800 -0.000000
v 0.524300 0.137800 -0.170400
v -0.170400 0.137800 -0.524300
v -0.117100 0.137800 -0.360500
v -0.000000 0.137800 -0.379000
v -0.222800 0.137800 -0.306600
v -0.446000 0.137800 0.324000
v -0.222800 0.137800 0.306600
v -0.324000 0.137800 0.446000
v -0.170400 -0.137800 0.524300
v -0.117100 -0.137800 0.360500
v -0.000000 -0.137800 0.551300
v -0.222800 -0.137800 -0.306600
v -0.117100 -0.137800 -0.360500
v 0.117100 -0.137800 -0.360500
v 0.324000 -0.137800 -0.446000
v 0.222800 -0.137800 -0.306600
v 0.306600 -0.137800 0.222800
v 0.324000 -0.137800 0.446000
v 0.222800 -0.137800 0.306600
v 0.379000 -0.137800 0.000000
v 0.551300 -0.137800 0.000000
v 0.360500 -0.137800 0.117100
v 0.306600 -0.137800 -0.222800
v 0.170400 -0.137800 0.524300
v 0.117100 -0.137800 0.360500
v 0.446000 -0.137800 0.324000
v -0.000000 -0.137800 0.379000
v 0.524300 -0.137800 0.170400
v 0.360500 -0.137800 -0.117100
v 0.446000 -0.137800 -0.324000
v 0.524300 -0.137800 -0.170400
v -0.000000 -0.137800 -0.379000
v -0.000000 -0.137800 -0.551300
v 0.170400 -0.137800 -0.524300
v -0.446000 -0.137800 0.324000
v -0.222800 -0.137800 0.306600
v -0.324000 -0.137800 0.446000
vt 0.000000 0.000000
vt 0.000000 0.000000
vt 0.000000 0.000000
vt 0.000000 0.000000
vt 0.000000 0.000000
vt 0.000000 0.000000
vt 0.000000 0.000000
vt 0.000000 0.000000
vt 0.000000 0.000000
vt 0.000000 0.000000
vt 0.000000 0.000000
vt 0.181611 0.933619
vt 0.004903 0.933619
vt 0.004903 0.861259
vt 0.181611 0.861259
vt 0.181611 0.995097
vt 0.004903 0.995097
vt 0.247908 0.712913
vt 0.247908 0.889621
vt 0.191417 0.889621
vt 0.191417 0.712913
vt 0.000000 0.000000
vt 0.000000 0.000000
vt 0.000000 0.000000
vt 0.317430 0.712913
vt 0.514457 0.668968
vt 0.464358 0.570539
vt 0.603954 0.603954
vt 0.104057 0.104057
vt 0.137471 0.243653
vt 0.039042 0.193554
vt 0.525836 0.525836
vt 0.570539 0.464358
vt 0.409318 0.703108
vt 0.391999 0.594025
vt 0.137471 0.464358
vt 0.004903 0.409318
vt 0.113986 0.391999
vt 0.004903 0.298693
vt 0.113986 0.316012
vt 0.316012 0.594025
vt 0.668968 0.514456
vt 0.298693 0.703108
vt 0.193554 0.668969
vt 0.104057 0.603954
vt 0.243653 0.570539
vt 0.182175 0.525836
vt 0.039042 0.514457
vt 0.193554 0.039042
vt 0.243653 0.137471
vt 0.182174 0.182174
vt 0.298693 0.004903
vt 0.316012 0.113986
vt 0.409317 0.004903
vt 0.391999 0.113986
vt 0.570539 0.243653
vt 0.703108 0.298693
vt 0.594025 0.316012
vt 0.594025 0.391999
vt 0.703108 0.409317
vt 0.514456 0.039042
vt 0.603954 0.104057
vt 0.464358 0.137471
vt 0.525836 0.182174
vt 0.668968 0.193554
vt 0.000000 0.000000
vt 0.000000 0.000000
vt 0.000000 0.000000
vt 0.000000 0.000000
vt 0.000000 0.000000
vt 0.000000 0.000000
vt 0.000000 0.000000
vt 0.000000 0.000000
vt 0.000000 0.000000
vt 0.000000 0.000000
vt 0.000000 0.000000
vt 0.000000 0.000000
vt 0.000000 0.000000
vt 0.000000 0.000000
vt 0.000000 0.000000
vt 0.000000 0.000000
vt 0.000000 0.000000
vt 0.000000 0.000000
vt 0.000000 0.000000
vt 0.000000 0.000000
vt 0.000000 0.000000
vt 0.000000 0.000000
vt 0.000000 0.000000
vt 0.000000 0.000000
vt 0.000000 0.000000
vt 0.000000 0.000000
vt 0.000000 0.000000
vt 0.000000 0.000000
vt 0.000000 0.000000
vt 0.000000 0.000000
vt 0.000000 0.000000
vt 0.000000 0.000000
vt 0.712914 0.094400
vt 0.712914 0.004903
vt 0.889622 0.004903
vt 0.889622 0.094400
vt 0.000000 0.000000
vt 0.000000 0.000000
vt 0.000000 0.000000
vt 0.000000 0.000000
vt 0.889622 0.514605
vt 0.889622 0.622726
vt 0.712914 0.622726
vt 0.712914 0.732750
vt 0.889622 0.732750
vt 0.889622 0.833764
vt 0.712914 0.833764
vt 0.889622 0.916009
vt 0.712914 0.916009
vt 0.712914 0.415302
vt 0.889622 0.415302
vt 0.889622 0.504799
vt 0.712914 0.504799
vt 0.712914 0.310163
vt 0.889622 0.310163
vt 0.712914 0.199539
vt 0.889622 0.199539
vt 0.000000 0.000000
vt 0.000000 0.000000
vt 0.000000 0.000000
vt 0.004903 0.712914
vt 0.181611 0.712914
vt 0.004903 0.785273
vt 0.181611 0.785273
vt 0.000000 0.000000
vt 0.000000 0.000000
vt 0.000000 0.000000
vt 0.000000 0.000000
vt 0.000000 0.000000
vt 0.000000 0.000000
vt 0.000000 0.000000
vt 0.000000 0.000000
vt 0.000000 0.000000
vt 0.000000 0.000000
vt 0.000000 0.000000
vt 0.000000 0.000000
vt 0.000000 0.000000
vt 0.000000 0.000000
vn -0.7030 0.6735 0.2285
vn -0.7392 0.6735 -0.0000
vn -0.7392 -0.6735 0.0000
vn -0.7030 -0.6735 0.2285
vn -0.7030 0.6735 -0.2285
vn -0.7030 -0.6735 -0.2285
vn -0.5979 0.6736 -0.4345
vn -0.5979 -0.6736 -0.4345
vn -0.4345 0.6736 -0.5979
vn -0.4345 -0.6736 -0.5979
vn -0.2285 -0.6735 -0.7030
vn 0.6353 0.7442 0.2064
vn 0.6353 -0.7442 0.2064
vn 0.5405 -0.7440 0.3928
vn 0.5405 0.7440 0.3928
vn 0.6682 0.7440 -0.0000
vn 0.6682 -0.7440 -0.0000
vn 0.6353 0.7442 -0.2064
vn 0.6353 -0.7442 -0.2064
vn 0.5405 0.7440 -0.3928
vn 0.5405 -0.7440 -0.3928
vn 0.2285 0.6735 0.7030
vn -0.2064 0.7442 -0.6353
vn -0.0000 0.6735 0.7392
vn -0.0000 0.6735 -0.7392
vn -0.2064 0.7442 0.6353
vn 0.2285 0.6735 -0.7030
vn -0.0000 0.7440 -0.6682
vn 0.2064 0.7442 -0.6353
vn 0.4345 0.6736 0.5979
vn -0.3928 0.7440 -0.5405
vn -0.6353 0.7442 0.2064
vn 0.5979 0.6736 -0.4345
vn -0.5405 0.7440 0.3928
vn 0.4345 0.6736 -0.5979
vn -0.3928 0.7440 0.5405
vn -0.5405 0.7440 -0.3928
vn -0.2285 0.6735 0.7030
vn 0.5979 0.6736 0.4345
vn 0.7030 0.6735 0.2285
vn 0.7392 0.6735 -0.0000
vn -0.6353 0.7442 -0.2064
vn -0.6682 0.7440 -0.0000
vn 0.7030 0.6735 -0.2285
vn -0.2285 0.6735 -0.7030
vn 0.2064 0.7442 0.6353
vn -0.0000 0.7440 0.6682
vn 0.3928 0.7440 0.5405
vn -0.5979 0.6736 0.4345
vn 0.3928 0.7440 -0.5405
vn -0.4345 0.6736 0.5979
vn -0.2285 -0.6735 0.7030
vn 0.2064 -0.7442 -0.6353
vn 0.0000 -0.6735 0.7392
vn 0.3928 -0.7440 0.5405
vn 0.2064 -0.7442 0.6353
vn -0.2064 -0.7442 0.6353
vn 0.4345 -0.6736 -0.5979
vn -0.3928 -0.7440 0.5405
vn -0.5405 -0.7440 -0.3928
vn 0.4345 -0.6736 0.5979
vn -0.3928 -0.7440 -0.5405
vn -0.6682 -0.7440 -0.0000
vn 0.7392 -0.6735 0.0000
vn -0.6353 -0.7442 -0.2064
vn -0.5405 -0.7440 0.3928
vn 0.2285 -0.6735 0.7030
vn -0.2064 -0.7442 -0.6353
vn 0.5979 -0.6736 0.4345
vn 0.0000 -0.7440 -0.6682
vn 0.7030 -0.6735 0.2285
vn -0.6353 -0.7442 0.2064
vn 0.5979 -0.6736 -0.4345
vn 0.7030 -0.6735 -0.2285
vn 0.0000 -0.7440 0.6682
vn 0.0000 -0.6735 -0.7392
vn 0.2285 -0.6735 -0.7030
vn -0.5979 -0.6736 0.4345
vn 0.3928 -0.7440 -0.5405
vn -0.4345 -0.6736 0.5979
usemtl color_40919
s 1
f 1/1/1 2/2/2 3/3/3
f 1/1/1 3/3/3 4/4/4
f 3/3/3 2/2/2 5/5/5
f 3/3/3 5/5/5 6/6/6
f 5/5/5 7/7/7 8/8/8
f 5/5/5 8/8/8 6/6/6
f 7/7/7 9/9/9 10/10/10
f 7/7/7 10/10/10 8/8/8
f 11/11/11 10/10/10 9/9/9
f 12/12/12 13/13/13 14/14/14
f 12/12/12 14/14/14 15/15/15
f 13/13/13 12/12/12 16/16/16
f 13/13/13 16/16/16 17/17/17
f 18/18/18 19/19/19 17/20/17
f 18/18/18 17/20/17 16/21/16
f 20/22/20 21/23/21 19/24/19
f 20/25/20 19/19/19 18/18/18
f 22/26/22 23/27/23 24/28/24
f 25/29/25 26/30/26 27/31/27
f 28/32/28 29/33/29 24/28/24
f 23/27/23 30/34/30 31/35/31
f 32/36/32 33/37/33 34/38/34
f 27/31/27 26/30/26 35/39/35
f 34/38/34 35/39/35 36/40/36
f 36/40/36 35/39/35 26/30/26
f 31/35/31 30/34/30 37/41/37
f 38/42/38 24/28/24 29/33/29
f 28/32/28 24/28/24 23/27/23
f 30/34/30 23/27/23 22/26/22
f 39/43/39 37/41/37 30/34/30
f 40/44/40 41/45/41 42/46/42
f 39/43/39 40/44/40 42/46/42
f 42/46/42 37/41/37 39/43/39
f 43/47/43 42/46/42 41/45/41
f 43/47/43 41/45/41 32/36/32
f 44/48/44 32/36/32 41/45/41
f 33/37/33 32/36/32 44/48/44
f 35/39/35 34/38/34 33/37/33
f 25/29/25 45/49/45 46/50/46
f 25/29/25 46/50/46 47/51/47
f 47/51/47 26/30/26 25/29/25
f 46/50/46 45/49/45 9/52/9
f 46/50/46 9/52/9 48/53/48
f 9/52/9 7/54/7 48/53/48
f 15/55/15 48/53/48 7/54/7
f 18/56/18 49/57/49 20/58/20
f 20/58/20 49/57/49 50/59/50
f 38/42/38 29/33/29 51/60/51
f 50/59/50 51/60/51 29/33/29
f 5/61/5 2/62/2 12/63/12
f 16/64/16 2/62/2 18/56/18
f 7/54/7 5/61/5 12/63/12
f 12/63/12 15/55/15 7/54/7
f 16/64/16 12/63/12 2/62/2
f 1/65/1 18/56/18 2/62/2
f 49/57/49 18/56/18 1/65/1
f 51/60/51 50/59/50 49/57/49
f 52/66/52 53/67/53 54/68/54
f 55/69/55 10/10/10 56/70/56
f 57/71/57 58/72/58 59/73/59
f 60/74/60 61/75/61 62/76/62
f 63/77/63 64/78/64 65/79/65
f 59/73/59 58/72/58 66/80/66
f 61/75/61 67/81/67 68/82/68
f 62/76/62 61/75/61 68/82/68
f 65/79/65 69/83/69 60/74/60
f 67/81/67 54/68/54 68/82/68
f 70/84/70 68/82/68 54/68/54
f 53/67/53 70/84/70 54/68/54
f 69/83/69 65/79/65 71/85/71
f 61/75/61 60/74/60 69/83/69
f 71/85/71 65/79/65 64/78/64
f 64/78/64 63/77/63 72/86/72
f 72/86/72 66/80/66 73/87/73
f 73/87/73 74/88/74 72/86/72
f 64/78/64 72/86/72 74/88/74
f 75/89/75 56/70/56 76/90/76
f 11/11/11 76/90/76 56/70/56
f 75/89/75 76/90/76 57/71/57
f 77/91/77 57/71/57 76/90/76
f 58/72/58 57/71/57 77/91/77
f 73/87/73 66/80/66 58/72/58
f 13/92/13 8/8/8 14/93/14
f 8/8/8 55/69/55 14/93/14
f 17/94/17 19/24/19 3/3/3
f 19/24/19 21/23/21 78/95/78
f 21/23/21 79/96/79 78/95/78
f 53/67/53 80/97/80 79/96/79
f 52/66/52 80/97/80 53/67/53
f 78/95/78 79/96/79 80/97/80
f 11/11/11 56/70/56 10/10/10
f 8/8/8 10/10/10 55/69/55
f 78/95/78 4/4/4 19/24/19
f 4/4/4 3/3/3 19/24/19
f 17/94/17 3/3/3 13/92/13
f 6/6/6 13/92/13 3/3/3
f 8/8/8 13/92/13 6/6/6
f 22/98/22 24/99/24 54/100/54
f 22/98/22 54/100/54 67/101/67
f 24/102/24 38/103/38 52/66/52
f 24/102/24 52/66/52 54/68/54
f 76/90/76 25/104/25 27/105/27
f 76/90/76 27/105/27 77/91/77
f 27/106/27 35/107/35 58/108/58
f 27/105/27 58/72/58 77/91/77
f 73/109/73 35/107/35 33/110/33
f 35/107/35 73/109/73 58/108/58
f 33/110/33 44/111/44 74/112/74
f 33/110/33 74/112/74 73/109/73
f 44/111/44 41/113/41 64/114/64
f 44/111/44 64/114/64 74/112/74
f 40/115/40 71/116/71 64/117/64
f 40/115/40 64/117/64 41/118/41
f 39/119/39 69/120/69 71/116/71
f 39/119/39 71/116/71 40/115/40
f 30/121/30 61/122/61 39/119/39
f 39/119/39 61/122/61 69/120/69
f 67/101/67 61/122/61 22/98/22
f 30/121/30 22/98/22 61/122/61
f 45/123/45 11/11/11 9/9/9
f 25/104/25 76/90/76 11/11/11
f 25/104/25 11/11/11 45/123/45
f 46/124/46 56/70/56 75/89/75
f 46/124/46 75/89/75 47/125/47
f 56/126/56 46/127/46 55/128/55
f 48/129/48 55/128/55 46/127/46
f 59/73/59 26/130/26 57/71/57
f 57/71/57 26/130/26 47/125/47
f 57/71/57 47/125/47 75/89/75
f 15/15/15 14/14/14 55/128/55
f 15/15/15 55/128/55 48/129/48
f 21/23/21 20/22/20 79/96/79
f 50/131/50 79/96/79 20/22/20
f 29/132/29 53/67/53 79/96/79
f 29/132/29 79/96/79 50/131/50
f 28/133/28 70/84/70 53/67/53
f 28/133/28 53/67/53 29/132/29
f 23/134/23 68/82/68 70/84/70
f 23/134/23 70/84/70 28/133/28
f 31/135/31 62/76/62 68/82/68
f 31/135/31 68/82/68 23/134/23
f 37/136/37 60/74/60 62/76/62
f 37/136/37 62/76/62 31/135/31
f 42/137/42 65/79/65 60/74/60
f 42/137/42 60/74/60 37/136/37
f 43/138/43 63/77/63 65/79/65
f 43/138/43 65/79/65 42/137/42
f 32/139/32 72/86/72 63/77/63
f 32/139/32 63/77/63 43/138/43
f 34/140/34 66/80/66 72/86/72
f 34/140/34 72/86/72 32/139/32
f 36/141/36 59/73/59 66/80/66
f 36/141/36 66/80/66 34/140/34
f 26/130/26 59/73/59 36/141/36
f 80/97/80 52/66/52 51/142/51
f 38/103/38 51/142/51 52/66/52
f 51/142/51 78/95/78 80/97/80
f 78/95/78 51/142/51 49/143/49
f 49/143/49 1/1/1 4/4/4
f 49/143/49 4/4/4 78/95/78
