# Blender v3.2.2 OBJ File: ''
# www.blender.org
mtllib CementGrower_07_UV.mtl
o obj_0
v -5.706000 -1.500000 1.853999
v -4.854000 -1.500000 3.527000
v -4.854000 1.500000 3.527000
v -5.706000 1.500000 1.853999
v -3.527000 -1.500000 4.853999
v -3.527000 1.500000 4.853999
v -3.203000 -1.500000 2.326999
v -3.203000 1.500000 2.326999
v -2.327000 1.500000 3.203000
v -2.327000 -1.500000 3.203000
v -3.766000 -1.500000 1.224000
v -3.766000 1.500000 1.224000
v -3.960000 -1.500000 -0.000001
v -3.960000 1.500000 -0.000001
v -3.766000 -1.500000 -1.224000
v -3.766000 1.500000 -1.224000
v -3.203000 -1.500000 -2.327000
v -3.203000 1.500000 -2.327000
v -2.327000 -1.500000 -3.203000
v -2.327000 1.500000 -3.203000
v 1.854000 -1.500000 -5.706000
v 0.000000 -1.500000 -3.960000
v 0.000000 -1.500000 -6.000001
v -1.854000 -1.500000 -5.706000
v 0.000000 -1.500000 5.999999
v -1.854000 -1.500000 5.706000
v 0.000000 -1.500000 3.960000
v 2.327000 -1.500000 3.203000
v 3.527000 -1.500000 4.853999
v 1.224000 -1.500000 3.766000
v 1.224000 -1.500000 -3.766000
v 3.527000 -1.500000 -4.854001
v 2.327000 -1.500000 -3.203000
v 3.766000 -1.500000 1.224000
v 4.854000 -1.500000 3.527000
v 3.203000 -1.500000 2.326999
v 3.203000 -1.500000 -2.327000
v 4.854000 -1.500000 -3.526999
v 3.960000 -1.500000 -0.000001
v 5.706000 -1.500000 1.853999
v 5.706000 -1.500000 -1.854001
v 3.766000 -1.500000 -1.224000
v 6.000000 -1.500000 -0.000001
v -1.224000 -1.500000 3.766000
v 1.854000 -1.500000 5.706000
v -6.000000 -1.500000 -0.000001
v -5.706000 -1.500000 -1.854001
v -4.854000 -1.500000 -3.526999
v -1.224000 -1.500000 -3.766000
v -3.527000 -1.500000 -4.854001
v -1.854000 1.500000 -5.706000
v 0.000000 1.500000 -3.960000
v 0.000000 1.500000 -6.000001
v -1.224000 1.500000 3.766000
v 1.224000 1.500000 3.766000
v 3.527000 1.500000 4.853999
v 2.327000 1.500000 3.203000
v -1.854000 1.500000 5.706000
v 0.000000 1.500000 5.999999
v 0.000000 1.500000 3.960000
v -1.224000 1.500000 -3.766000
v -3.527000 1.500000 -4.854001
v 3.203000 1.500000 -2.327000
v 4.854000 1.500000 -3.526999
v 2.327000 1.500000 -3.203000
v 3.960000 1.500000 -0.000001
v 5.706000 1.500000 -1.854001
v 3.766000 1.500000 -1.224000
v 3.527000 1.500000 -4.854001
v 1.854000 1.500000 -5.706000
v 1.224000 1.500000 -3.766000
v 6.000000 1.500000 -0.000001
v 3.766000 1.500000 1.224000
v 5.706000 1.500000 1.853999
v 3.203000 1.500000 2.326999
v 4.854000 1.500000 3.527000
v 1.854000 1.500000 5.706000
v -4.854000 1.500000 -3.526999
v -5.706000 1.500000 -1.854001
v -6.000000 1.500000 -0.000001
vt 0.000000 0.000000
vt 0.000000 0.000000
vt 0.000000 0.000000
vt 0.000000 0.000000
vt 0.005075 0.687565
vt 0.175260 0.791687
vt 0.005075 0.791687
vt 0.000000 0.000000
vt 0.000000 0.000000
vt 0.000000 0.000000
vt 0.000000 0.000000
vt 0.000000 0.000000
vt 0.000000 0.000000
vt 0.000000 0.000000
vt 0.000000 0.000000
vt 0.000000 0.000000
vt 0.415455 0.687565
vt 0.415455 0.857751
vt 0.365744 0.857751
vt 0.000000 0.000000
vt 0.185409 0.825853
vt 0.355595 0.825853
vt 0.355595 0.885498
vt 0.185409 0.885498
vt 0.185409 0.757643
vt 0.355595 0.757643
vt 0.000000 0.000000
vt 0.000000 0.000000
vt 0.000000 0.000000
vt 0.000000 0.000000
vt 0.000000 0.000000
vt 0.000000 0.000000
vt 0.000000 0.000000
vt 0.000000 0.000000
vt 0.000000 0.000000
vt 0.000000 0.000000
vt 0.000000 0.000000
vt 0.000000 0.000000
vt 0.000000 0.000000
vt 0.000000 0.000000
vt 0.000000 0.000000
vt 0.000000 0.000000
vt 0.000000 0.000000
vt 0.000000 0.000000
vt 0.000000 0.000000
vt 0.000000 0.000000
vt 0.000000 0.000000
vt 0.000000 0.000000
vt 0.000000 0.000000
vt 0.000000 0.000000
vt 0.000000 0.000000
vt 0.000000 0.000000
vt 0.000000 0.000000
vt 0.000000 0.000000
vt 0.000000 0.000000
vt 0.000000 0.000000
vt 0.000000 0.000000
vt 0.000000 0.000000
vt 0.038019 0.186672
vt 0.119373 0.306062
vt 0.005075 0.287937
vt 0.563123 0.306126
vt 0.541379 0.239325
vt 0.644544 0.186759
vt 0.541373 0.443284
vt 0.581871 0.581984
vt 0.500030 0.500081
vt 0.677416 0.288064
vt 0.677416 0.394554
vt 0.563118 0.376429
vt 0.141117 0.239206
vt 0.100619 0.100506
vt 0.182409 0.500030
vt 0.100506 0.581871
vt 0.141111 0.443166
vt 0.306062 0.563118
vt 0.186672 0.644471
vt 0.239206 0.541373
vt 0.037947 0.495731
vt 0.005075 0.394426
vt 0.119367 0.376364
vt 0.287937 0.677416
vt 0.376364 0.563123
vt 0.394426 0.677416
vt 0.443166 0.541379
vt 0.495731 0.644544
vt 0.644471 0.495818
vt 0.443284 0.141117
vt 0.581984 0.100619
vt 0.500081 0.182461
vt 0.376429 0.119372
vt 0.495818 0.038019
vt 0.182461 0.182409
vt 0.186759 0.037947
vt 0.239325 0.141111
vt 0.306126 0.119367
vt 0.288064 0.005075
vt 0.394554 0.005075
vt 0.000000 0.000000
vt 0.000000 0.000000
vt 0.000000 0.000000
vt 0.000000 0.000000
vt 0.687565 0.005075
vt 0.857750 0.005075
vt 0.857750 0.103772
vt 0.687565 0.103772
vt 0.857750 0.210007
vt 0.687565 0.210007
vt 0.857750 0.313334
vt 0.687565 0.313334
vt 0.857750 0.403708
vt 0.687565 0.403708
vt 0.857751 0.413857
vt 0.857751 0.489150
vt 0.687565 0.489150
vt 0.687565 0.413857
vt 0.857751 0.584046
vt 0.687565 0.584046
vt 0.857751 0.689238
vt 0.687565 0.689238
vt 0.857751 0.794386
vt 0.687565 0.794386
vt 0.005075 0.897612
vt 0.175260 0.897612
vt 0.175260 0.994925
vt 0.005075 0.994925
vt 0.000000 0.000000
vt 0.000000 0.000000
vt 0.000000 0.000000
vt 0.000000 0.000000
vt 0.355595 0.687565
vt 0.000000 0.000000
vt 0.000000 0.000000
vt 0.000000 0.000000
vt 0.000000 0.000000
vt 0.000000 0.000000
vt 0.000000 0.000000
vt 0.000000 0.000000
vt 0.000000 0.000000
vt 0.000000 0.000000
vt 0.000000 0.000000
vt 0.000000 0.000000
vt 0.000000 0.000000
vt 0.000000 0.000000
vn -0.7029 -0.6736 0.2284
vn -0.5981 -0.6735 0.4344
vn -0.5981 0.6735 0.4344
vn -0.7029 0.6736 0.2284
vn -0.4344 -0.6735 0.5981
vn -0.4344 0.6735 0.5981
vn 0.5404 -0.7440 -0.3930
vn 0.5404 0.7440 -0.3930
vn 0.3930 0.7440 -0.5404
vn 0.3930 -0.7440 -0.5404
vn 0.6352 -0.7441 -0.2067
vn 0.6352 0.7441 -0.2067
vn 0.6681 -0.7441 0.0000
vn 0.6681 0.7441 0.0000
vn 0.6352 -0.7441 0.2067
vn 0.6352 0.7441 0.2067
vn 0.5404 -0.7440 0.3929
vn 0.5404 0.7440 0.3929
vn 0.3929 -0.7440 0.5404
vn 0.3929 0.7440 0.5404
vn 0.2284 -0.6736 -0.7029
vn -0.0000 -0.7441 0.6681
vn 0.0000 -0.6735 -0.7392
vn -0.2284 -0.6736 -0.7029
vn 0.0000 -0.6735 0.7392
vn -0.2284 -0.6736 0.7029
vn 0.0000 -0.7441 -0.6681
vn -0.3930 -0.7440 -0.5404
vn 0.4344 -0.6735 0.5981
vn -0.2067 -0.7441 -0.6352
vn -0.2067 -0.7441 0.6352
vn 0.4344 -0.6735 -0.5981
vn -0.3929 -0.7440 0.5404
vn -0.6352 -0.7441 -0.2067
vn 0.5981 -0.6735 0.4344
vn -0.5404 -0.7440 -0.3929
vn -0.5404 -0.7440 0.3929
vn 0.5981 -0.6735 -0.4344
vn -0.6681 -0.7441 0.0000
vn 0.7029 -0.6736 0.2284
vn 0.7029 -0.6736 -0.2284
vn -0.6352 -0.7441 0.2067
vn 0.7392 -0.6735 -0.0000
vn 0.2067 -0.7441 -0.6352
vn 0.2284 -0.6736 0.7029
vn -0.7392 -0.6735 -0.0000
vn -0.7029 -0.6736 -0.2284
vn -0.5981 -0.6735 -0.4344
vn 0.2067 -0.7441 0.6352
vn -0.4344 -0.6735 -0.5981
vn -0.2284 0.6736 -0.7029
vn 0.0000 0.7441 0.6681
vn 0.0000 0.6735 -0.7392
vn 0.2067 0.7441 -0.6352
vn -0.2067 0.7441 -0.6352
vn 0.4344 0.6735 0.5981
vn -0.3930 0.7440 -0.5404
vn -0.2284 0.6736 0.7029
vn 0.0000 0.6735 0.7392
vn -0.0000 0.7441 -0.6681
vn 0.2067 0.7441 0.6352
vn -0.4344 0.6735 -0.5981
vn -0.5404 0.7440 0.3929
vn 0.5981 0.6735 -0.4344
vn -0.3929 0.7440 0.5404
vn -0.6681 0.7441 0.0000
vn 0.7029 0.6736 -0.2284
vn -0.6352 0.7441 0.2067
vn 0.4344 0.6735 -0.5981
vn 0.2284 0.6736 -0.7029
vn -0.2067 0.7441 0.6352
vn 0.7392 0.6735 -0.0000
vn -0.6352 0.7441 -0.2067
vn 0.7029 0.6736 0.2284
vn -0.5404 0.7440 -0.3930
vn 0.5981 0.6735 0.4344
vn 0.2284 0.6736 0.7029
vn -0.5981 0.6735 -0.4344
vn -0.7029 0.6736 -0.2284
vn -0.7392 0.6735 -0.0000
usemtl color_40919
s 1
f 1/1/1 2/2/2 3/3/3
f 1/1/1 3/3/3 4/4/4
f 3/5/3 5/6/5 6/7/6
f 2/2/2 5/8/5 3/3/3
f 7/9/7 8/10/8 9/11/9
f 7/9/7 9/11/9 10/12/10
f 11/13/11 12/14/12 8/10/8
f 11/13/11 8/10/8 7/9/7
f 12/14/12 11/13/11 13/15/13
f 12/14/12 13/15/13 14/16/14
f 15/17/15 16/18/16 14/19/14
f 15/20/15 14/16/14 13/15/13
f 17/21/17 18/22/18 16/23/16
f 17/21/17 16/23/16 15/24/15
f 19/25/19 20/26/20 18/22/18
f 19/25/19 18/22/18 17/21/17
f 21/27/21 22/28/22 23/29/23
f 24/30/24 23/29/23 22/28/22
f 25/31/25 26/32/26 27/33/27
f 28/34/28 29/35/29 30/36/30
f 22/28/22 21/27/21 31/37/31
f 31/37/31 32/38/32 33/39/33
f 34/40/34 35/41/35 36/42/36
f 36/42/36 35/41/35 28/34/28
f 37/43/37 33/39/33 38/44/38
f 21/27/21 32/38/32 31/37/31
f 38/44/38 33/39/33 32/38/32
f 39/45/39 40/46/40 34/40/34
f 29/35/29 28/34/28 35/41/35
f 38/44/38 41/47/41 42/48/42
f 42/48/42 37/43/37 38/44/38
f 39/45/39 42/48/42 41/47/41
f 41/47/41 43/49/43 39/45/39
f 40/46/40 39/45/39 43/49/43
f 35/41/35 34/40/34 40/46/40
f 44/50/44 27/33/27 26/32/26
f 30/36/30 45/51/45 27/33/27
f 29/35/29 45/51/45 30/36/30
f 25/31/25 27/33/27 45/51/45
f 26/32/26 5/8/5 44/50/44
f 10/12/10 44/50/44 5/8/5
f 10/12/10 2/2/2 7/9/7
f 11/13/11 7/9/7 2/2/2
f 1/1/1 46/52/46 13/15/13
f 47/53/47 48/54/48 15/20/15
f 17/55/17 48/54/48 19/56/19
f 49/57/49 19/56/19 50/58/50
f 50/58/50 24/30/24 49/57/49
f 22/28/22 49/57/49 24/30/24
f 2/2/2 10/12/10 5/8/5
f 13/15/13 11/13/11 1/1/1
f 2/2/2 1/1/1 11/13/11
f 46/52/46 47/53/47 13/15/13
f 15/20/15 13/15/13 47/53/47
f 17/55/17 15/20/15 48/54/48
f 50/58/50 19/56/19 48/54/48
f 51/59/51 52/60/52 53/61/53
f 54/62/54 9/63/9 6/64/6
f 55/65/55 56/66/56 57/67/57
f 58/68/58 59/69/59 60/70/60
f 52/60/52 51/59/51 61/71/61
f 51/59/51 62/72/62 61/71/61
f 63/73/63 64/74/64 65/75/65
f 66/76/66 67/77/67 68/78/68
f 69/79/69 70/80/70 71/81/71
f 67/77/67 64/74/64 68/78/68
f 65/75/65 69/79/69 71/81/71
f 52/60/52 71/81/71 70/80/70
f 70/80/70 53/61/53 52/60/52
f 69/79/69 65/75/65 64/74/64
f 63/73/63 68/78/68 64/74/64
f 72/82/72 67/77/67 66/76/66
f 73/83/73 74/84/74 66/76/66
f 75/85/75 76/86/76 73/83/73
f 75/85/75 57/67/57 76/86/76
f 74/84/74 73/83/73 76/86/76
f 72/82/72 66/76/66 74/84/74
f 56/66/56 76/86/76 57/67/57
f 6/64/6 58/68/58 54/62/54
f 60/70/60 54/62/54 58/68/58
f 60/70/60 77/87/77 55/65/55
f 77/87/77 60/70/60 59/69/59
f 56/66/56 55/65/55 77/87/77
f 12/88/12 3/89/3 8/90/8
f 14/91/14 4/92/4 12/88/12
f 20/93/20 78/94/78 18/95/18
f 20/93/20 61/71/61 62/72/62
f 8/90/8 3/89/3 9/63/9
f 14/91/14 16/96/16 79/97/79
f 78/94/78 79/97/79 16/96/16
f 18/95/18 78/94/78 16/96/16
f 62/72/62 78/94/78 20/93/20
f 6/64/6 9/63/9 3/89/3
f 79/97/79 80/98/80 14/91/14
f 4/92/4 14/91/14 80/98/80
f 3/89/3 12/88/12 4/92/4
f 21/27/21 70/99/70 69/100/69
f 21/27/21 23/29/23 53/101/53
f 21/27/21 53/101/53 70/99/70
f 23/29/23 24/30/24 51/102/51
f 23/29/23 51/102/51 53/101/53
f 24/30/24 50/58/50 51/102/51
f 59/103/59 25/104/25 45/105/45
f 59/103/59 45/105/45 77/106/77
f 45/105/45 29/107/29 56/108/56
f 45/105/45 56/108/56 77/106/77
f 56/108/56 35/109/35 76/110/76
f 29/107/29 35/109/35 56/108/56
f 35/109/35 40/111/40 74/112/74
f 35/109/35 74/112/74 76/110/76
f 40/113/40 43/114/43 72/115/72
f 40/113/40 72/115/72 74/116/74
f 41/117/41 67/118/67 72/115/72
f 41/117/41 72/115/72 43/114/43
f 38/119/38 64/120/64 67/118/67
f 38/119/38 67/118/67 41/117/41
f 32/121/32 69/122/69 38/119/38
f 38/119/38 69/122/69 64/120/64
f 32/38/32 21/27/21 69/100/69
f 6/7/6 5/6/5 58/123/58
f 26/124/26 58/123/58 5/6/5
f 25/125/25 59/126/59 58/123/58
f 25/125/25 58/123/58 26/124/26
f 44/50/44 54/127/54 60/128/60
f 44/50/44 60/128/60 27/33/27
f 44/50/44 10/12/10 54/127/54
f 9/11/9 54/127/54 10/12/10
f 57/129/57 28/34/28 30/36/30
f 57/129/57 30/36/30 55/130/55
f 55/130/55 30/36/30 27/33/27
f 55/130/55 27/33/27 60/128/60
f 20/26/20 19/25/19 61/131/61
f 49/57/49 61/132/61 19/56/19
f 22/28/22 52/133/52 61/132/61
f 22/28/22 61/132/61 49/57/49
f 31/37/31 71/134/71 52/133/52
f 31/37/31 52/133/52 22/28/22
f 33/39/33 65/135/65 71/134/71
f 33/39/33 71/134/71 31/37/31
f 37/43/37 63/136/63 65/135/65
f 37/43/37 65/135/65 33/39/33
f 42/48/42 68/137/68 63/136/63
f 42/48/42 63/136/63 37/43/37
f 39/45/39 66/138/66 68/137/68
f 39/45/39 68/137/68 42/48/42
f 34/40/34 73/139/73 66/138/66
f 34/40/34 66/138/66 39/45/39
f 36/42/36 75/140/75 73/139/73
f 36/42/36 73/139/73 34/40/34
f 75/140/75 36/42/36 57/129/57
f 28/34/28 57/129/57 36/42/36
f 50/58/50 62/141/62 51/102/51
f 48/54/48 78/142/78 50/58/50
f 62/141/62 50/58/50 78/142/78
f 48/54/48 47/53/47 79/143/79
f 48/54/48 79/143/79 78/142/78
f 47/53/47 46/52/46 80/144/80
f 47/53/47 80/144/80 79/143/79
f 80/144/80 46/52/46 1/1/1
f 80/144/80 1/1/1 4/4/4
