# Blender v3.2.2 OBJ File: 'CementGrow_build.blend'
# www.blender.org
mtllib CementGrow_05_fromblender.mtl
o obj_0
v -0.524300 0.137800 0.170400
v -0.551300 0.137800 -0.000000
v -0.551300 -0.137800 0.000000
v -0.524300 -0.137800 0.170400
v -0.524300 0.137800 -0.170400
v -0.524300 -0.137800 -0.170400
v -0.446000 0.137800 -0.324000
v -0.446000 -0.137800 -0.324000
v -0.324000 0.137800 -0.446000
v -0.324000 -0.137800 -0.446000
v -0.170400 -0.137800 -0.524300
v -0.360500 0.137800 -0.117100
v -0.360500 -0.137800 -0.117100
v -0.306600 -0.137800 -0.222800
v -0.306600 0.137800 -0.222800
v -0.379000 0.137800 -0.000000
v -0.379000 -0.137800 0.000000
v -0.360500 0.137800 0.117100
v -0.360500 -0.137800 0.117100
v -0.306600 0.137800 0.222800
v -0.306600 -0.137800 0.222800
v 0.170400 0.137800 0.524300
v 0.117100 0.137800 0.360500
v -0.000000 0.137800 0.551300
v -0.000000 0.137800 -0.551300
v 0.117100 0.137800 -0.360500
v 0.170400 0.137800 -0.524300
v -0.000000 0.137800 0.379000
v -0.117100 0.137800 0.360500
v 0.324000 0.137800 0.446000
v 0.222800 0.137800 0.306600
v 0.360500 0.137800 -0.117100
v 0.446000 0.137800 -0.324000
v 0.306600 0.137800 -0.222800
v 0.324000 0.137800 -0.446000
v 0.222800 0.137800 -0.306600
v 0.306600 0.137800 0.222800
v -0.170400 0.137800 0.524300
v 0.446000 0.137800 0.324000
v 0.524300 0.137800 0.170400
v 0.551300 0.137800 -0.000000
v 0.360500 0.137800 0.117100
v 0.379000 0.137800 -0.000000
v 0.524300 0.137800 -0.170400
v -0.170400 0.137800 -0.524300
v -0.117100 0.137800 -0.360500
v -0.000000 0.137800 -0.379000
v -0.222800 0.137800 -0.306600
v -0.446000 0.137800 0.324000
v -0.222800 0.137800 0.306600
v -0.324000 0.137800 0.446000
v -0.170400 -0.137800 0.524300
v -0.117100 -0.137800 0.360500
v -0.000000 -0.137800 0.551300
v -0.222800 -0.137800 -0.306600
v -0.117100 -0.137800 -0.360500
v 0.117100 -0.137800 -0.360500
v 0.324000 -0.137800 -0.446000
v 0.222800 -0.137800 -0.306600
v 0.306600 -0.137800 0.222800
v 0.324000 -0.137800 0.446000
v 0.222800 -0.137800 0.306600
v 0.379000 -0.137800 0.000000
v 0.551300 -0.137800 0.000000
v 0.360500 -0.137800 0.117100
v 0.306600 -0.137800 -0.222800
v 0.170400 -0.137800 0.524300
v 0.117100 -0.137800 0.360500
v 0.446000 -0.137800 0.324000
v -0.000000 -0.137800 0.379000
v 0.524300 -0.137800 0.170400
v 0.360500 -0.137800 -0.117100
v 0.446000 -0.137800 -0.324000
v 0.524300 -0.137800 -0.170400
v -0.000000 -0.137800 -0.379000
v -0.000000 -0.137800 -0.551300
v 0.170400 -0.137800 -0.524300
v -0.446000 -0.137800 0.324000
v -0.222800 -0.137800 0.306600
v -0.324000 -0.137800 0.446000
vn -0.7030 0.6735 0.2285
vn -0.7392 0.6735 -0.0000
vn -0.7392 -0.6735 0.0000
vn -0.7030 -0.6735 0.2285
vn -0.7030 0.6735 -0.2285
vn -0.7030 -0.6735 -0.2285
vn -0.5979 0.6736 -0.4345
vn -0.5979 -0.6736 -0.4345
vn -0.4345 0.6736 -0.5979
vn -0.4345 -0.6736 -0.5979
vn -0.2285 -0.6735 -0.7030
vn 0.6353 0.7442 0.2064
vn 0.6353 -0.7442 0.2064
vn 0.5405 -0.7440 0.3928
vn 0.5405 0.7440 0.3928
vn 0.6682 0.7440 -0.0000
vn 0.6682 -0.7440 -0.0000
vn 0.6353 0.7442 -0.2064
vn 0.6353 -0.7442 -0.2064
vn 0.5405 0.7440 -0.3928
vn 0.5405 -0.7440 -0.3928
vn 0.2285 0.6735 0.7030
vn -0.2064 0.7442 -0.6353
vn -0.0000 0.6735 0.7392
vn -0.0000 0.6735 -0.7392
vn -0.2064 0.7442 0.6353
vn 0.2285 0.6735 -0.7030
vn -0.0000 0.7440 -0.6682
vn 0.2064 0.7442 -0.6353
vn 0.4345 0.6736 0.5979
vn -0.3928 0.7440 -0.5405
vn -0.6353 0.7442 0.2064
vn 0.5979 0.6736 -0.4345
vn -0.5405 0.7440 0.3928
vn 0.4345 0.6736 -0.5979
vn -0.3928 0.7440 0.5405
vn -0.5405 0.7440 -0.3928
vn -0.2285 0.6735 0.7030
vn 0.5979 0.6736 0.4345
vn 0.7030 0.6735 0.2285
vn 0.7392 0.6735 -0.0000
vn -0.6353 0.7442 -0.2064
vn -0.6682 0.7440 -0.0000
vn 0.7030 0.6735 -0.2285
vn -0.2285 0.6735 -0.7030
vn 0.2064 0.7442 0.6353
vn -0.0000 0.7440 0.6682
vn 0.3928 0.7440 0.5405
vn -0.5979 0.6736 0.4345
vn 0.3928 0.7440 -0.5405
vn -0.4345 0.6736 0.5979
vn -0.2285 -0.6735 0.7030
vn 0.2064 -0.7442 -0.6353
vn 0.0000 -0.6735 0.7392
vn 0.3928 -0.7440 0.5405
vn 0.2064 -0.7442 0.6353
vn -0.2064 -0.7442 0.6353
vn 0.4345 -0.6736 -0.5979
vn -0.3928 -0.7440 0.5405
vn -0.5405 -0.7440 -0.3928
vn 0.4345 -0.6736 0.5979
vn -0.3928 -0.7440 -0.5405
vn -0.6682 -0.7440 -0.0000
vn 0.7392 -0.6735 0.0000
vn -0.6353 -0.7442 -0.2064
vn -0.5405 -0.7440 0.3928
vn 0.2285 -0.6735 0.7030
vn -0.2064 -0.7442 -0.6353
vn 0.5979 -0.6736 0.4345
vn 0.0000 -0.7440 -0.6682
vn 0.7030 -0.6735 0.2285
vn -0.6353 -0.7442 0.2064
vn 0.5979 -0.6736 -0.4345
vn 0.7030 -0.6735 -0.2285
vn 0.0000 -0.7440 0.6682
vn 0.0000 -0.6735 -0.7392
vn 0.2285 -0.6735 -0.7030
vn -0.5979 -0.6736 0.4345
vn 0.3928 -0.7440 -0.5405
vn -0.4345 -0.6736 0.5979
usemtl color_40919
s 1
f 1//1 2//2 3//3
f 1//1 3//3 4//4
f 3//3 2//2 5//5
f 3//3 5//5 6//6
f 5//5 7//7 8//8
f 5//5 8//8 6//6
f 7//7 9//9 10//10
f 7//7 10//10 8//8
f 11//11 10//10 9//9
f 12//12 13//13 14//14
f 12//12 14//14 15//15
f 13//13 12//12 16//16
f 13//13 16//16 17//17
f 18//18 19//19 17//17
f 18//18 17//17 16//16
f 20//20 21//21 19//19
f 20//20 19//19 18//18
f 22//22 23//23 24//24
f 25//25 26//26 27//27
f 28//28 29//29 24//24
f 23//23 30//30 31//31
f 32//32 33//33 34//34
f 27//27 26//26 35//35
f 34//34 35//35 36//36
f 36//36 35//35 26//26
f 31//31 30//30 37//37
f 38//38 24//24 29//29
f 28//28 24//24 23//23
f 30//30 23//23 22//22
f 39//39 37//37 30//30
f 40//40 41//41 42//42
f 39//39 40//40 42//42
f 42//42 37//37 39//39
f 43//43 42//42 41//41
f 43//43 41//41 32//32
f 44//44 32//32 41//41
f 33//33 32//32 44//44
f 35//35 34//34 33//33
f 25//25 45//45 46//46
f 25//25 46//46 47//47
f 47//47 26//26 25//25
f 46//46 45//45 9//9
f 46//46 9//9 48//48
f 9//9 7//7 48//48
f 15//15 48//48 7//7
f 18//18 49//49 20//20
f 20//20 49//49 50//50
f 38//38 29//29 51//51
f 50//50 51//51 29//29
f 5//5 2//2 12//12
f 16//16 2//2 18//18
f 7//7 5//5 12//12
f 12//12 15//15 7//7
f 16//16 12//12 2//2
f 1//1 18//18 2//2
f 49//49 18//18 1//1
f 51//51 50//50 49//49
f 52//52 53//53 54//54
f 55//55 10//10 56//56
f 57//57 58//58 59//59
f 60//60 61//61 62//62
f 63//63 64//64 65//65
f 59//59 58//58 66//66
f 61//61 67//67 68//68
f 62//62 61//61 68//68
f 65//65 69//69 60//60
f 67//67 54//54 68//68
f 70//70 68//68 54//54
f 53//53 70//70 54//54
f 69//69 65//65 71//71
f 61//61 60//60 69//69
f 71//71 65//65 64//64
f 64//64 63//63 72//72
f 72//72 66//66 73//73
f 73//73 74//74 72//72
f 64//64 72//72 74//74
f 75//75 56//56 76//76
f 11//11 76//76 56//56
f 75//75 76//76 57//57
f 77//77 57//57 76//76
f 58//58 57//57 77//77
f 73//73 66//66 58//58
f 13//13 8//8 14//14
f 8//8 55//55 14//14
f 17//17 19//19 3//3
f 19//19 21//21 78//78
f 21//21 79//79 78//78
f 53//53 80//80 79//79
f 52//52 80//80 53//53
f 78//78 79//79 80//80
f 11//11 56//56 10//10
f 8//8 10//10 55//55
f 78//78 4//4 19//19
f 4//4 3//3 19//19
f 17//17 3//3 13//13
f 6//6 13//13 3//3
f 8//8 13//13 6//6
f 22//22 24//24 54//54
f 22//22 54//54 67//67
f 24//24 38//38 52//52
f 24//24 52//52 54//54
f 76//76 25//25 27//27
f 76//76 27//27 77//77
f 27//27 35//35 58//58
f 27//27 58//58 77//77
f 73//73 35//35 33//33
f 35//35 73//73 58//58
f 33//33 44//44 74//74
f 33//33 74//74 73//73
f 44//44 41//41 64//64
f 44//44 64//64 74//74
f 40//40 71//71 64//64
f 40//40 64//64 41//41
f 39//39 69//69 71//71
f 39//39 71//71 40//40
f 30//30 61//61 39//39
f 39//39 61//61 69//69
f 67//67 61//61 22//22
f 30//30 22//22 61//61
f 45//45 11//11 9//9
f 25//25 76//76 11//11
f 25//25 11//11 45//45
f 46//46 56//56 75//75
f 46//46 75//75 47//47
f 56//56 46//46 55//55
f 48//48 55//55 46//46
f 59//59 26//26 57//57
f 57//57 26//26 47//47
f 57//57 47//47 75//75
f 15//15 14//14 55//55
f 15//15 55//55 48//48
f 21//21 20//20 79//79
f 50//50 79//79 20//20
f 29//29 53//53 79//79
f 29//29 79//79 50//50
f 28//28 70//70 53//53
f 28//28 53//53 29//29
f 23//23 68//68 70//70
f 23//23 70//70 28//28
f 31//31 62//62 68//68
f 31//31 68//68 23//23
f 37//37 60//60 62//62
f 37//37 62//62 31//31
f 42//42 65//65 60//60
f 42//42 60//60 37//37
f 43//43 63//63 65//65
f 43//43 65//65 42//42
f 32//32 72//72 63//63
f 32//32 63//63 43//43
f 34//34 66//66 72//72
f 34//34 72//72 32//32
f 36//36 59//59 66//66
f 36//36 66//66 34//34
f 26//26 59//59 36//36
f 80//80 52//52 51//51
f 38//38 51//51 52//52
f 51//51 78//78 80//80
f 78//78 51//51 49//49
f 49//49 1//1 4//4
f 49//49 4//4 78//78
